<?xml version="1.0" encoding="utf-8"?>
<!-- Svg Vector Icons : http://www.onlinewebfonts.com/icon -->
<!DOCTYPE svg PUBLIC "-//W3C//DTD SVG 1.1//EN" "http://www.w3.org/Graphics/SVG/1.1/DTD/svg11.dtd">
<svg version="1.1" xmlns="http://www.w3.org/2000/svg" xmlns:xlink="http://www.w3.org/1999/xlink" x="0px" y="0px" viewBox="0 0 1000 1000" enable-background="new 0 0 1000 1000" xml:space="preserve">
<metadata> Svg Vector Icons : http://www.onlinewebfonts.com/icon </metadata>
<g><path d="M840.4,10H159.7c-38.1,0-69,31-69,69v787.6c0,76.1,42.1,123.4,109.8,123.4l680.4,0c0.1,0,0.2,0,0.3,0c0.1,0,0.2,0,0.3,0h3.7v-0.4c13.7-1.9,24.3-13.6,24.3-27.9V79C909.4,41,878.4,10,840.4,10z M147.2,866.6V79c0-6.9,5.6-12.4,12.4-12.4h680.7c6.9,0,12.5,5.6,12.5,12.4v854.3H200.4C165.1,933.4,147.2,910.9,147.2,866.6z"/><path d="M269.6,532.1h174.3c15.6,0,28.3-12.7,28.3-28.3c0-15.6-12.7-28.3-28.3-28.3H269.6c-15.6,0-28.3,12.7-28.3,28.3C241.3,519.4,254,532.1,269.6,532.1z"/><path d="M745.5,475.5h-182c-15.6,0-28.3,12.7-28.3,28.3c0,15.6,12.7,28.3,28.3,28.3h182c15.6,0,28.3-12.7,28.3-28.3C773.8,488.1,761.1,475.5,745.5,475.5z"/><path d="M745.5,269.5H269.6c-15.6,0-28.3,12.7-28.3,28.3c0,15.6,12.7,28.3,28.3,28.3h475.9c15.6,0,28.3-12.7,28.3-28.3C773.8,282.1,761.1,269.5,745.5,269.5z"/><path d="M745.5,673.9H269.6c-15.6,0-28.3,12.7-28.3,28.3c0,15.6,12.7,28.3,28.3,28.3h475.9c15.6,0,28.3-12.7,28.3-28.3C773.8,686.6,761.1,673.9,745.5,673.9z"/></g>
</svg>